<svg width="80" height="80" viewBox="0 0 80 80" fill="none" xmlns="http://www.w3.org/2000/svg">
<path d="M80 40C80 17.9086 62.0914 0 40 0C17.9086 0 0 17.9086 0 40C0 62.0914 17.9086 80 40 80C62.0914 80 80 62.0914 80 40Z" fill="#FFF5DA"/>
<path d="M50.468 51.508L51.517 50.457L48.708 47.641V43.436H47.208V48.242L50.468 51.508ZM27.247 52.034C26.6508 52.0314 26.0799 51.793 25.6589 51.3708C25.2379 50.9487 25.0011 50.3772 25 49.781V27.253C25.0011 26.6568 25.2379 26.0853 25.6589 25.6632C26.0799 25.241 26.6508 25.0026 27.247 25H49.719C50.3152 25.0026 50.8861 25.241 51.3071 25.6632C51.7281 26.0853 51.965 26.6568 51.966 27.253V39.606C51.6172 39.4058 51.2485 39.2422 50.866 39.118C50.4914 38.9962 50.1101 38.896 49.724 38.818V27.253H27.247V49.781H38.82C38.92 50.181 39.0327 50.571 39.158 50.951C39.2801 51.3225 39.4302 51.6842 39.607 52.033L27.247 52.034ZM30.992 46.026H38.892C38.992 45.626 39.1043 45.238 39.229 44.862C39.3551 44.4838 39.5182 44.1191 39.716 43.773H30.989L30.992 46.026ZM30.992 39.643H43.876C44.2033 39.4772 44.541 39.3329 44.887 39.211C45.2117 39.0983 45.5737 38.992 45.973 38.892V37.392H30.993L30.992 39.643ZM30.992 33.26H45.973V31.007H30.993L30.992 33.26ZM47.94 55C46.082 54.9864 44.304 54.2423 42.9901 52.9286C41.6762 51.6149 40.9319 49.837 40.918 47.979C40.9022 47.046 41.0767 46.1196 41.4309 45.2564C41.7851 44.3931 42.3115 43.611 42.978 42.958C43.6283 42.3004 44.4026 41.7784 45.2561 41.4222C46.1095 41.0659 47.0252 40.8824 47.95 40.8824C48.8748 40.8824 49.7905 41.0659 50.6439 41.4222C51.4974 41.7784 52.2717 42.3004 52.922 42.958C53.5933 43.6084 54.124 44.3895 54.4814 45.2531C54.8388 46.1167 55.0153 47.0445 55 47.979C54.9775 49.8408 54.2252 51.6195 52.905 52.9325C51.5847 54.2454 49.8019 54.9878 47.94 55Z" fill="#3E497A"/>
</svg>
