<svg width="80" height="80" viewBox="0 0 80 80" fill="none" xmlns="http://www.w3.org/2000/svg">
<path d="M80 40C80 17.9086 62.0914 0 40 0C17.9086 0 0 17.9086 0 40C0 62.0914 17.9086 80 40 80C62.0914 80 80 62.0914 80 40Z" fill="#FFF5DA"/>
<path d="M41.3382 42.6755V45.4626C40.1309 45.0358 38.8389 44.9049 37.5705 45.0809C36.3022 45.2569 35.0946 45.7347 34.0492 46.4741C33.0038 47.2135 32.1511 48.1929 31.5627 49.3302C30.9742 50.4675 30.6673 51.7293 30.6676 53.0098H28C27.9996 51.3811 28.372 49.7739 29.0888 48.3113C29.8056 46.8488 30.8476 45.5698 32.1351 44.5722C33.4226 43.5747 34.9214 42.8851 36.5166 42.5563C38.1118 42.2276 39.7611 42.2683 41.3382 42.6755ZM38.6705 41.0056C37.0877 41.0056 35.5404 40.5362 34.2244 39.6569C32.9083 38.7775 31.8825 37.5277 31.2768 36.0653C30.6711 34.603 30.5126 32.9939 30.8214 31.4415C31.1302 29.8891 31.8924 28.4632 33.0116 27.344C34.1309 26.2248 35.5568 25.4626 37.1092 25.1538C38.6617 24.845 40.2708 25.0035 41.7331 25.6092C43.1955 26.2149 44.4453 27.2406 45.3247 28.5567C46.2041 29.8727 46.6734 31.42 46.6734 33.0028C46.6734 35.1253 45.8303 37.1608 44.3294 38.6616C42.8286 40.1624 40.793 41.0056 38.6705 41.0056ZM38.6705 38.338C39.7258 38.338 40.7573 38.0251 41.6347 37.4389C42.512 36.8526 43.1959 36.0194 43.5997 35.0445C44.0035 34.0696 44.1091 32.9969 43.9033 31.962C43.6974 30.927 43.1893 29.9764 42.4431 29.2302C41.697 28.4841 40.7463 27.976 39.7114 27.7701C38.6765 27.5643 37.6037 27.6699 36.6288 28.0737C35.6539 28.4775 34.8207 29.1614 34.2344 30.0387C33.6482 30.9161 33.3353 31.9476 33.3353 33.0028C33.3353 34.4178 33.8974 35.7748 34.8979 36.7754C35.8985 37.7759 37.2555 38.338 38.6705 38.338ZM46.3971 50.2269L51.1124 45.5117L53 47.3972L46.3981 54L41.6818 49.2837L43.5694 47.3982L46.3971 50.2269Z" fill="#3E497A"/>
</svg>
