<svg width="80" height="80" viewBox="0 0 80 80" fill="none" xmlns="http://www.w3.org/2000/svg">
<path d="M80 40C80 17.9086 62.0914 0 40 0C17.9086 0 0 17.9086 0 40C0 62.0914 17.9086 80 40 80C62.0914 80 80 62.0914 80 40Z" fill="#FFF5DA"/>
<path d="M28.0995 46.6992V52.8996H34.2999V55.999H25V46.6992H28.0995ZM55.999 46.6992V55.999H46.6992V52.8996H52.8996V46.6992H55.999ZM34.2999 25V28.0995H28.0995V34.2999H25V25H34.2999ZM55.999 25V34.2999H52.8996V28.0995H46.6992V25H55.999Z" fill="#3E497A"/>
<path d="M33.1006 50.2123C33.1006 48.2496 33.8803 46.3672 35.2681 44.9794C36.656 43.5915 38.5383 42.8118 40.501 42.8118C42.4638 42.8118 44.3461 43.5915 45.7339 44.9794C47.1218 46.3672 47.9015 48.2496 47.9015 50.2123H46.046C46.046 48.7403 45.4612 47.3286 44.4204 46.2877C43.3795 45.2469 41.9678 44.6621 40.4958 44.6621C39.0238 44.6621 37.6121 45.2469 36.5713 46.2877C35.5304 47.3286 34.9457 48.7403 34.9457 50.2123H33.1006ZM40.5003 41.8796C39.4021 41.8805 38.3283 41.5555 37.4148 40.9459C36.5013 40.3362 35.7893 39.4693 35.3687 38.4548C34.9482 37.4403 34.8381 36.3238 35.0523 35.2467C35.2666 34.1695 35.7956 33.1802 36.5723 32.4038C37.3491 31.6275 38.3387 31.099 39.416 30.8854C40.4932 30.6717 41.6096 30.7824 42.6239 31.2035C43.6382 31.6246 44.5048 32.3371 45.1139 33.2509C45.7231 34.1647 46.0475 35.2387 46.046 36.3369C46.0464 37.8082 45.4624 39.2195 44.4224 40.2603C43.3824 41.3011 41.9716 41.8863 40.5003 41.887V41.8796ZM40.5003 40.03C41.2326 40.0303 41.9485 39.8134 42.5574 39.4066C43.1663 38.9998 43.6409 38.4215 43.921 37.7449C44.2011 37.0683 44.2741 36.3238 44.1309 35.6057C43.9877 34.8875 43.6346 34.228 43.1164 33.7106C42.5982 33.1932 41.9381 32.8412 41.2197 32.6992C40.5013 32.5571 39.757 32.6314 39.0808 32.9125C38.4047 33.1937 37.8271 33.6692 37.4213 34.2788C37.0155 34.8883 36.7997 35.6046 36.8012 36.3369C36.801 36.8228 36.8965 37.304 37.0823 37.7529C37.2681 38.2019 37.5406 38.6099 37.8841 38.9535C38.2276 39.2972 38.6355 39.5698 39.0844 39.7558C39.5333 39.9418 40.0144 40.0375 40.5003 40.0375V40.03Z" fill="#3E497A"/>
</svg>
