<svg width="20" height="21" viewBox="0 0 20 21" fill="none" xmlns="http://www.w3.org/2000/svg">
<path d="M10 0.5C12.717 0.5 13.056 0.51 14.122 0.56C14.9517 0.577131 15.7726 0.734344 16.55 1.025C17.2179 1.27512 17.8228 1.6687 18.322 2.178C18.8305 2.6779 19.224 3.28259 19.475 3.95C19.7653 4.72747 19.9225 5.54829 19.94 6.378C19.987 7.444 20 7.783 20 10.5C20 13.217 19.99 13.556 19.94 14.622C19.9224 15.4517 19.7652 16.2725 19.475 17.05C19.2185 17.7146 18.8257 18.3182 18.322 18.822C17.8182 19.3257 17.2146 19.7185 16.55 19.975C15.7725 20.2653 14.9517 20.4225 14.122 20.44C13.056 20.487 12.722 20.5 10 20.5C7.278 20.5 6.944 20.49 5.878 20.44C5.0483 20.4224 4.2275 20.2652 3.45 19.975C2.78537 19.7185 2.18178 19.3257 1.67803 18.822C1.17428 18.3182 0.781518 17.7146 0.525 17.05C0.234233 16.2727 0.0770161 15.4518 0.0599999 14.622C0.0129999 13.556 0 13.217 0 10.5C0 7.783 0.00999994 7.444 0.0599999 6.378C0.0770161 5.54824 0.234233 4.72733 0.525 3.95C0.775236 3.28218 1.1688 2.67732 1.678 2.178C2.17773 1.66931 2.78247 1.27582 3.45 1.025C4.22733 0.734233 5.04824 0.577016 5.878 0.56C6.944 0.513 7.283 0.5 10 0.5ZM10 5.5C9.01109 5.5 8.04439 5.79324 7.22215 6.34265C6.3999 6.89206 5.75904 7.67295 5.3806 8.58658C5.00216 9.50021 4.90315 10.5055 5.09607 11.4755C5.289 12.4454 5.7652 13.3363 6.46447 14.0355C7.16373 14.7348 8.05464 15.211 9.02455 15.4039C9.99445 15.5969 10.9998 15.4978 11.9134 15.1194C12.827 14.741 13.6079 14.1001 14.1573 13.2779C14.7068 12.4556 15 11.4889 15 10.5C15 9.17392 14.4732 7.90215 13.5355 6.96447C12.5979 6.02678 11.3261 5.5 10 5.5ZM16.5 5.25C16.5 5.00277 16.4267 4.7611 16.2893 4.55554C16.152 4.34998 15.9568 4.18976 15.7284 4.09515C15.4999 4.00054 15.2486 3.97579 15.0061 4.02402C14.7637 4.07225 14.5409 4.1913 14.3661 4.36612C14.1913 4.54093 14.0723 4.76366 14.024 5.00614C13.9758 5.24861 14.0005 5.49995 14.0951 5.72835C14.1898 5.95676 14.35 6.15199 14.5555 6.28934C14.7611 6.42669 15.0028 6.5 15.25 6.5C15.5815 6.5 15.8995 6.3683 16.1339 6.13388C16.3683 5.89946 16.5 5.58152 16.5 5.25ZM10 7.5C10.5933 7.5 11.1734 7.67595 11.6667 8.00559C12.1601 8.33524 12.5446 8.80377 12.7716 9.35195C12.9987 9.90013 13.0581 10.5033 12.9424 11.0853C12.8266 11.6672 12.5409 12.2018 12.1213 12.6213C11.7018 13.0409 11.1672 13.3266 10.5853 13.4424C10.0033 13.5581 9.40013 13.4987 8.85195 13.2716C8.30377 13.0446 7.83524 12.6601 7.50559 12.1667C7.17595 11.6734 7 11.0933 7 10.5C7 9.70435 7.31607 8.94129 7.87868 8.37868C8.44129 7.81607 9.20435 7.5 10 7.5Z" fill="black"/>
</svg>
