<svg width="18" height="19" viewBox="0 0 18 19" fill="none" xmlns="http://www.w3.org/2000/svg">
<path d="M15.335 15.839H12.67V11.662C12.67 10.662 12.65 9.38399 11.28 9.38399C9.891 9.38399 9.68 10.468 9.68 11.584V15.834H7.013V7.24999H9.573V8.41999H9.608C9.86493 7.98213 10.2356 7.62199 10.6807 7.37779C11.1258 7.1336 11.6287 7.01445 12.136 7.03299C14.836 7.03299 15.336 8.81099 15.336 11.124V15.839H15.335ZM4 6.07499C3.69392 6.0744 3.39489 5.98308 3.14069 5.81258C2.8865 5.64208 2.68856 5.40005 2.57188 5.11708C2.45521 4.83411 2.42504 4.5229 2.48519 4.22279C2.54533 3.92267 2.6931 3.64713 2.90981 3.43098C3.12652 3.21483 3.40245 3.06777 3.70272 3.0084C4.00298 2.94902 4.31411 2.97999 4.59678 3.0974C4.87945 3.21481 5.12096 3.41337 5.29081 3.66801C5.46065 3.92264 5.5512 4.22191 5.551 4.52799C5.55113 4.73152 5.51108 4.93307 5.43313 5.12108C5.35518 5.30909 5.24088 5.47986 5.09678 5.62359C4.95267 5.76733 4.78161 5.88119 4.5934 5.95865C4.40518 6.03611 4.20353 6.07565 4 6.07499ZM5.336 15.839H2.666V7.24999H5.34V15.839H5.336ZM16.67 0.499989H1.329C1.15629 0.497744 0.984828 0.529625 0.824465 0.593804C0.664101 0.657982 0.517989 0.753195 0.394511 0.873978C0.271034 0.994761 0.172622 1.13874 0.104921 1.29765C0.037221 1.45655 0.00156524 1.62727 0 1.79999V17.2C0.00156613 17.3726 0.0371891 17.5433 0.104827 17.7021C0.172465 17.8609 0.270787 18.0049 0.394158 18.1256C0.51753 18.2464 0.663524 18.3416 0.823771 18.4059C0.984019 18.4701 1.15537 18.5021 1.328 18.5H16.666C16.839 18.5022 17.0107 18.4704 17.1713 18.4063C17.332 18.3422 17.4784 18.247 17.6023 18.1263C17.7261 18.0056 17.825 17.8616 17.8933 17.7027C17.9615 17.5438 17.9978 17.3729 18 17.2V1.79999C17.9978 1.62703 17.9615 1.45621 17.8933 1.29727C17.825 1.13833 17.7261 0.994395 17.6023 0.873676C17.4784 0.752957 17.332 0.657822 17.1713 0.593704C17.0107 0.529587 16.839 0.497742 16.666 0.499989H16.67Z" fill="black"/>
</svg>
