<svg width="143" height="31" viewBox="0 0 143 31" fill="none" xmlns="http://www.w3.org/2000/svg">
<mask id="mask0_497_2873" style="mask-type:luminance" maskUnits="userSpaceOnUse" x="0" y="0" width="33" height="31">
<path d="M30.3627 0H1.94386C0.870296 0 0 0.870296 0 1.94386V28.9961C0 30.0697 0.870296 30.94 1.94386 30.94H30.3627C31.4363 30.94 32.3066 30.0697 32.3066 28.9961V1.94386C32.3066 0.870296 31.4363 0 30.3627 0Z" fill="white"/>
</mask>
<g mask="url(#mask0_497_2873)">
<path d="M32.3066 0H0V30.94H32.3066V0Z" fill="#FFB72B"/>
</g>
<mask id="mask1_497_2873" style="mask-type:luminance" maskUnits="userSpaceOnUse" x="1" y="6" width="32" height="25">
<path d="M1.04596 30.9233C1.11848 30.9288 1.1882 30.9288 1.26071 30.9233H31.0433C31.7238 30.9372 32.2899 30.399 32.3067 29.7157V6.05469C17.2522 6.72123 4.48467 16.8728 1.0376 30.9233" fill="white"/>
</mask>
<g mask="url(#mask1_497_2873)">
<path d="M32.3068 6.05469H1.04883V30.9456H32.3068V6.05469Z" fill="#FFCA63"/>
</g>
<path d="M15.8853 7.78382C17.4304 7.70852 18.928 8.32487 19.9711 9.46553C20.1189 9.62171 20.2946 9.75278 20.487 9.8504C20.8635 10.0373 21.1368 10.3803 21.2428 10.7847C21.3934 11.362 21.5022 11.9504 21.6109 12.5361C21.6611 12.8066 21.689 13.0799 21.6918 13.3532C21.7113 13.6321 21.6918 13.9138 21.6305 14.1871C21.5496 14.5246 21.5384 14.876 21.6026 15.219C21.6026 15.2664 21.6221 15.3138 21.6528 15.3501C22.007 15.6987 22.1576 16.2035 22.046 16.6888C22.0321 17.1043 21.7978 17.4808 21.4352 17.6788C21.3739 17.7123 21.3404 17.8183 21.3237 17.8964C21.056 18.9031 20.6488 19.8681 20.1133 20.7606C19.7201 21.4438 19.1679 22.0239 18.5013 22.4478C17.9798 22.7741 17.4416 23.0753 16.8866 23.3459C16.3009 23.6387 15.612 23.6471 15.0208 23.3654C14.1423 22.9917 13.3279 22.4785 12.6112 21.851C12.0367 21.2904 11.5877 20.6155 11.292 19.8709C11.002 19.2099 10.7872 18.5211 10.5307 17.8462C10.4972 17.7569 10.4386 17.6788 10.3605 17.6258C9.68843 17.174 9.47368 16.2816 9.86691 15.5732C9.87807 15.537 9.90038 15.5035 9.92827 15.4784C10.1374 15.3417 10.0677 15.1716 10.0147 14.9792C9.84739 14.374 9.694 13.7632 9.55735 13.1524C9.46531 12.6895 9.53782 12.207 9.76651 11.7915C10.7398 9.73326 12.653 8.28025 14.8981 7.89538C15.2857 7.82008 15.6873 7.80335 15.8937 7.77825L15.8853 7.78382ZM12.3769 12.7704C11.6992 12.7481 11.5375 12.8652 11.2948 13.4899C11.1108 14.0337 11.0243 14.6055 11.041 15.18C11.0131 15.7015 11.0187 16.223 11.055 16.7445C11.1833 17.7485 11.4789 18.7219 11.9363 19.6255C12.2207 20.3115 12.6474 20.9335 13.1857 21.4466C13.8327 21.9877 14.555 22.4311 15.3304 22.7574C15.7124 22.9359 16.1531 22.9275 16.5268 22.7351C17.0846 22.4478 17.634 22.1383 18.1639 21.8036C18.6268 21.5136 19.0145 21.1175 19.2962 20.649C19.7117 19.988 20.0436 19.2797 20.289 18.5406C20.5428 17.8713 20.6627 17.1573 20.6404 16.4433C20.6097 15.9246 20.4563 15.4226 20.1914 14.9736C20.038 14.7477 19.9934 14.4688 20.0659 14.2066C20.0966 14.0923 20.1133 13.9752 20.1161 13.8552C20.1412 13.6349 19.9822 13.4369 19.7647 13.4118C19.7508 13.4118 19.734 13.4118 19.7201 13.4118C19.2962 13.37 18.8695 13.4174 18.4651 13.5513C17.7121 13.8078 16.9033 13.8608 16.1224 13.7019C15.4698 13.5485 14.8228 13.3588 14.1785 13.1692C13.5985 12.9544 12.9933 12.8206 12.3769 12.7704Z" fill="#3E497A"/>
<path d="M24.372 6.93882C23.6051 6.93882 22.8716 6.94439 22.1381 6.93882C21.7226 6.93882 21.3823 6.60415 21.3823 6.18581C21.3823 5.77027 21.717 5.43002 22.1353 5.43002C23.1365 5.42445 24.1378 5.42166 25.1362 5.43002C25.5406 5.41887 25.8808 5.73959 25.8892 6.14398C25.8892 6.15514 25.8892 6.1635 25.8892 6.17466C25.9003 7.18145 25.9003 8.18545 25.8892 9.19224C25.8808 9.60779 25.535 9.93967 25.1194 9.9313C24.7039 9.92293 24.372 9.57711 24.3804 9.16156V7.18703C24.372 7.11173 24.372 7.03922 24.372 6.93882Z" fill="#3E497A"/>
<path d="M24.3718 24.1825V21.957C24.3607 21.5414 24.6897 21.1928 25.1053 21.1817C25.5208 21.1705 25.8695 21.4996 25.8806 21.9152C25.9001 22.9303 25.8946 23.9427 25.8806 24.9578C25.8806 25.3622 25.5571 25.6941 25.1499 25.6969C25.1416 25.6969 25.1332 25.6969 25.1248 25.6969C24.132 25.7053 23.1363 25.7053 22.1435 25.6969C21.7252 25.6913 21.3905 25.3483 21.3961 24.9299C21.4016 24.5116 21.7447 24.1769 22.163 24.1825H24.3718Z" fill="#3E497A"/>
<path d="M7.17299 24.1407H9.38737C9.82244 24.1491 10.1655 24.5088 10.1571 24.9439C10.1571 25.0025 10.1487 25.0638 10.132 25.1224C10.04 25.4375 9.75272 25.6551 9.42642 25.6551C8.41962 25.6634 7.41004 25.6634 6.40325 25.6551C5.99607 25.6607 5.6642 25.3344 5.65862 24.9272C5.65862 24.9188 5.65862 24.9077 5.65862 24.8993C5.65025 23.8981 5.65025 22.8969 5.65862 21.8957C5.66977 21.4773 6.01281 21.1427 6.43114 21.1399C6.84669 21.1482 7.17857 21.4913 7.17299 21.9068C7.17299 21.9068 7.17299 21.9124 7.17299 21.9152V23.8897C7.17299 23.9678 7.17299 24.0403 7.17299 24.1379V24.1407Z" fill="#3E497A"/>
<path d="M7.17285 6.9388V9.0221C7.17564 9.13087 7.16448 9.23963 7.13938 9.34561C7.02783 9.74721 6.61228 9.98427 6.21068 9.87271C5.88996 9.78347 5.66406 9.49621 5.65569 9.16434C5.64732 8.1687 5.64732 7.17585 5.65569 6.18022C5.64732 5.77025 5.97362 5.43279 6.38359 5.42443C6.39475 5.42443 6.4059 5.42443 6.41706 5.42443C7.41269 5.41606 8.40554 5.41606 9.40117 5.42443C9.81951 5.43 10.157 5.76746 10.1681 6.1858C10.1681 6.60134 9.83066 6.94159 9.41512 6.94159C9.40396 6.94159 9.39281 6.94159 9.38444 6.94159C8.65654 6.94159 7.93143 6.9388 7.17285 6.9388Z" fill="#3E497A"/>
<path d="M21.5078 15.9246C22.4114 15.9246 23.1672 15.8772 23.9118 15.9497C24.16 15.9748 24.3775 16.3067 24.6118 16.4963C24.3775 16.686 24.1712 16.9677 23.9034 17.0541C23.5715 17.1183 23.2341 17.1294 22.8994 17.0904H8.35255C8.01788 17.1266 7.68043 17.1071 7.35134 17.0318C7.10313 16.9258 6.91906 16.7055 6.86328 16.4434C6.86328 16.2649 7.20632 15.9581 7.41827 15.9414C8.20195 15.88 8.99121 15.919 9.78046 15.919" fill="#3E497A"/>
<path d="M40.5532 5.48016H43.476V22.4115H52.3419V24.9857H40.5532V5.48016ZM54.732 28.377C55.6551 28.4634 56.5085 27.8889 56.779 27.0021L57.5989 25.1307L51.7813 10.8599H54.5897L59.0046 21.943L63.4194 10.8599H66.2557L59.2974 27.6742C58.6559 29.5902 56.8097 30.8368 54.7933 30.7169C54.2411 30.7085 53.6917 30.6388 53.1562 30.5133L53.5662 28.1455C53.9371 28.2961 54.3359 28.3742 54.7347 28.3798L54.732 28.377ZM68.4143 21.2123C69.6693 22.4757 71.3677 23.2008 73.1498 23.2315C75.1383 23.2315 76.1925 22.4115 76.1925 21.2123C76.1925 19.8095 74.5833 19.341 72.7705 18.9338C70.3721 18.376 67.5665 17.7346 67.5665 14.6891C67.5665 12.4357 69.4964 10.5085 72.9462 10.5085C74.9347 10.4472 76.8674 11.1723 78.326 12.5249L77.1575 14.3684C76.0754 13.2193 74.5526 12.5918 72.9769 12.6448C71.192 12.6448 70.082 13.3476 70.082 14.4855C70.082 15.7126 71.602 16.1226 73.3562 16.5325C75.8076 17.0903 78.7332 17.7597 78.7332 21.0059C78.7332 23.4323 76.7447 25.3343 73.0299 25.3343C70.8546 25.4291 68.7322 24.6371 67.1537 23.1394L68.4171 21.2123H68.4143ZM82.593 21.8565V13.1719H80.2531V10.8627H82.593V7.00289H85.2257V10.8627H88.0899V13.1719H85.2257V21.2709C85.2257 22.2637 85.6971 22.9944 86.6007 22.9944C87.1333 23.0056 87.6493 22.8048 88.0342 22.4394L88.7063 24.4279C87.9477 25.0861 86.9576 25.4124 85.9592 25.3343C83.7365 25.3343 82.5958 24.0765 82.5958 21.8538L82.593 21.8565ZM91.6569 13.1719H89.3171V10.8627H91.6569V9.92844C91.6569 6.88855 93.439 5.19011 95.9546 5.19011C96.7578 5.16222 97.5527 5.3435 98.2638 5.71721L97.6503 7.67502C97.2654 7.46027 96.8331 7.34872 96.3925 7.35429C95.0789 7.35429 94.2869 8.23001 94.2869 9.92844V10.8627H97.1538V13.1719H94.2869V24.9829H91.6569V13.1691V13.1719ZM108.382 23.4351C107.188 24.704 105.504 25.3984 103.761 25.3371C101.173 25.457 98.975 23.4574 98.8523 20.8665C98.8495 20.7968 98.8467 20.727 98.8467 20.6573C98.8467 17.4417 101.393 16.0361 103.758 16.0361C105.498 15.9441 107.191 16.6302 108.379 17.9075V15.5676C108.379 13.8134 106.946 12.7592 104.929 12.7592C103.317 12.7647 101.781 13.4424 100.69 14.6305L99.5495 12.8177C101.083 11.2894 103.175 10.4555 105.339 10.5085C108.41 10.5085 111.012 11.8528 111.012 15.4505V24.9801H108.382V23.4323V23.4351ZM108.382 19.486C107.489 18.4151 106.148 17.8238 104.756 17.8824C102.857 17.8824 101.51 19.0202 101.51 20.688C101.51 22.3558 102.854 23.4936 104.756 23.4936C106.151 23.5522 107.492 22.9582 108.382 21.8844V19.4832V19.486ZM121.537 10.5085C123.607 10.3942 125.595 11.3285 126.83 12.9934L125.076 14.6026C124.318 13.4648 123.024 12.801 121.654 12.8484C118.877 12.8484 117.092 14.9819 117.092 17.9075C117.092 20.833 118.877 23 121.654 23C123.018 23.0362 124.307 22.3753 125.076 21.2458L126.83 22.8494C125.595 24.5144 123.607 25.4486 121.537 25.3343C117.267 25.3343 114.345 22.1466 114.345 17.9075C114.345 13.6684 117.27 10.5085 121.537 10.5085ZM135.922 10.5085C140.167 10.5085 142.794 13.8106 142.794 18.1389V18.7832H131.625C131.756 21.3099 133.892 23.2621 136.421 23.1701C137.978 23.1785 139.478 22.5789 140.602 21.5024L141.829 23.2259C140.29 24.6482 138.251 25.4068 136.157 25.3315C132.06 25.2646 128.794 21.89 128.861 17.7931C128.925 13.8803 132.015 10.6926 135.922 10.5057V10.5085ZM131.594 16.8839H140.22C140.239 14.5747 138.382 12.6894 136.076 12.6727C136.025 12.6727 135.972 12.6727 135.922 12.6727C133.577 12.6727 131.658 14.5385 131.594 16.8839Z" fill="#595A62"/>
</svg>
