<svg width="24" height="24" viewBox="0 0 24 24" fill="none" xmlns="http://www.w3.org/2000/svg">
<g clip-path="url(#clip0_406_2566)">
<path d="M3.03126 15.5304C2.31606 13.7712 2.16246 11.9568 2.51286 10.0944C3.25926 6.1104 6.56886 2.9544 10.6081 2.3928C10.7809 2.3688 10.8385 2.3136 10.8361 2.1408C10.8289 1.5888 10.8337 1.0344 10.8337 0.4824C10.8337 -0.0191997 10.8337 -0.0191997 10.3441 0.0504003C7.50487 0.4512 5.10246 1.7016 3.15846 3.8016C1.80006 5.2656 0.878465 6.9504 0.381665 8.8368C0.175265 9.6552 -0.424735 12.6024 0.636065 15.8832C0.729665 16.1544 0.832865 16.4232 0.943265 16.692C1.02246 16.8792 1.09206 16.9176 1.27446 16.8072C1.80966 16.4808 2.35686 16.1664 2.90406 15.8616C3.05766 15.7752 3.10566 15.7104 3.03126 15.5304ZM23.4457 8.4144C22.8649 6.504 21.8737 4.86 20.4937 3.4776C19.8913 2.8872 17.6473 0.8832 14.2777 0.1488C13.9969 0.0912003 13.7113 0.0456003 13.4257 0.00720034C13.2241 -0.0191997 13.1569 0.0216003 13.1593 0.2376C13.1713 0.8664 13.1689 1.4952 13.1545 2.124C13.1497 2.2968 13.1833 2.3712 13.3729 2.3976C15.2521 2.6664 16.8961 3.4488 18.3289 4.6896C21.3961 7.3416 22.4545 11.7912 20.9017 15.5616C20.8345 15.7224 20.8537 15.8016 21.0049 15.8856C21.4873 16.1568 21.9625 16.44 22.4401 16.7184C22.8745 16.9704 22.8721 16.9704 23.0593 16.5144C24.1465 13.8576 24.2761 11.1528 23.4457 8.4144ZM21.5233 18.8808C20.9737 18.576 20.4313 18.2592 19.8937 17.9328C19.7473 17.844 19.6657 17.8344 19.5481 17.9856C18.3721 19.476 16.8721 20.508 15.0817 21.1248C11.2489 22.4472 6.86886 21.132 4.38486 17.8992C4.27926 17.76 4.20246 17.7384 4.05366 17.8248C3.57846 18.1056 3.09366 18.3744 2.61366 18.648C2.17686 18.8952 2.17926 18.8952 2.47926 19.2864C4.23127 21.5544 6.50647 23.0232 9.29287 23.676C11.2369 24.132 13.1569 24.0984 15.0433 23.5968C15.8569 23.3712 18.7153 22.4352 21.0409 19.8888C21.2305 19.6728 21.4153 19.452 21.5905 19.2216C21.7105 19.0656 21.7105 18.984 21.5233 18.8808ZM4.41126 11.9328C4.40406 16.3296 8.05686 19.476 11.9881 19.4112C15.8665 19.4712 19.5481 16.3824 19.5553 11.9544C19.5625 7.572 15.9601 4.5312 12.1249 4.464C8.10247 4.3896 4.41846 7.524 4.41126 11.9328ZM9.86647 8.0472C12.0409 9.3792 14.1865 10.6968 16.3729 12.036C14.1985 13.3704 12.0529 14.6856 9.86647 16.0248V8.0472Z" fill="#3E497A"/>
</g>
<defs>
<clipPath id="clip0_406_2566">
<rect width="24" height="24" fill="white"/>
</clipPath>
</defs>
</svg>
